<?xml version="1.0" standalone="no"?><!-- Generator: Gravit.io --><svg xmlns="http://www.w3.org/2000/svg" xmlns:xlink="http://www.w3.org/1999/xlink" style="isolation:isolate" viewBox="78.952 489.405 86.827 86.827" width="86.827" height="86.827"><g id="logo"><path d=" M 79.547 532.819 C 79.547 509.186 98.733 490 122.365 490 C 145.997 490 165.184 509.186 165.184 532.819 C 165.184 556.451 145.997 575.637 122.365 575.637 C 98.733 575.637 79.547 556.451 79.547 532.819 Z " fill="rgb(163,35,37)" vector-effect="non-scaling-stroke" stroke-width="1.189" stroke="rgb(163,35,37)" stroke-linejoin="miter" stroke-linecap="square" stroke-miterlimit="3"/><path d=" M 88.467 532.819 C 88.467 514.11 103.656 498.921 122.365 498.921 C 141.074 498.921 156.263 514.11 156.263 532.819 C 156.263 551.527 141.074 566.717 122.365 566.717 C 103.656 566.717 88.467 551.527 88.467 532.819 Z " fill="rgb(163,35,37)" vector-effect="non-scaling-stroke" stroke-width="1.189" stroke="rgb(255,255,255)" stroke-linejoin="miter" stroke-linecap="square" stroke-miterlimit="3"/><path d=" M 119.406 547.636 L 119.406 550.11 L 102.707 550.11 L 102.707 547.588 L 114.791 529.271 L 114.791 529.271 Q 116.504 526.512 116.504 524.371 L 116.504 524.371 L 116.504 524.371 Q 116.504 521.707 114.815 520.28 L 114.815 520.28 L 114.815 520.28 Q 113.126 518.852 111.223 518.852 L 111.223 518.852 L 111.223 518.852 Q 109.32 518.852 107.892 519.994 L 107.892 519.994 L 107.892 519.994 Q 106.465 521.136 105.799 522.991 L 105.799 522.991 L 103.325 522.04 L 103.325 522.04 Q 104.229 519.518 106.203 517.925 L 106.203 517.925 L 106.203 517.925 Q 108.178 516.331 111.342 516.331 L 111.342 516.331 L 111.342 516.331 Q 114.505 516.331 116.789 518.329 L 116.789 518.329 L 116.789 518.329 Q 119.311 520.517 119.311 523.729 L 119.311 523.729 L 119.311 523.729 Q 119.311 526.94 117.217 530.461 L 117.217 530.461 L 105.799 547.636 L 119.406 547.636 Z  M 131.49 533.078 L 131.49 533.078 L 131.49 533.078 Q 128.493 533.22 126.423 535.361 L 126.423 535.361 L 126.423 535.361 Q 124.354 537.502 124.354 540.571 L 124.354 540.571 L 124.354 540.571 Q 124.354 543.639 126.542 545.828 L 126.542 545.828 L 126.542 545.828 Q 128.731 548.016 131.823 548.016 L 131.823 548.016 L 131.823 548.016 Q 134.916 548.016 137.104 545.828 L 137.104 545.828 L 137.104 545.828 Q 139.293 543.639 139.293 540.571 L 139.293 540.571 L 139.293 540.571 Q 139.293 537.502 137.104 535.361 L 137.104 535.361 L 137.104 535.361 Q 134.916 533.22 131.49 533.078 Z  M 136.581 531.65 L 136.581 531.65 L 136.581 531.65 Q 139.007 532.982 140.482 535.337 L 140.482 535.337 L 140.482 535.337 Q 141.957 537.692 141.957 540.547 L 141.957 540.547 L 141.957 540.547 Q 141.957 544.781 139.007 547.731 L 139.007 547.731 L 139.007 547.731 Q 136.057 550.681 131.823 550.681 L 131.823 550.681 L 131.823 550.681 Q 127.589 550.681 124.639 547.731 L 124.639 547.731 L 124.639 547.731 Q 121.689 544.781 121.689 540.547 L 121.689 540.547 L 121.689 540.547 Q 121.689 537.645 123.164 535.266 L 123.164 535.266 L 123.164 535.266 Q 124.639 532.887 127.113 531.603 L 127.113 531.603 L 127.113 531.603 Q 123.545 529.176 123.545 524.752 L 123.545 524.752 L 123.545 524.752 Q 123.545 521.279 125.971 518.828 L 125.971 518.828 L 125.971 518.828 Q 128.398 516.378 131.895 516.378 L 131.895 516.378 L 131.895 516.378 Q 135.391 516.378 137.818 518.828 L 137.818 518.828 L 137.818 518.828 Q 140.244 521.279 140.244 524.752 L 140.244 524.752 L 140.244 524.752 Q 140.244 529.224 136.581 531.65 Z  M 131.633 530.461 L 131.633 530.461 L 131.633 530.461 Q 134.202 530.461 135.938 528.796 L 135.938 528.796 L 135.938 528.796 Q 137.675 527.131 137.675 524.728 L 137.675 524.728 L 137.675 524.728 Q 137.675 522.325 135.962 520.613 L 135.962 520.613 L 135.962 520.613 Q 134.25 518.9 131.847 518.9 L 131.847 518.9 L 131.847 518.9 Q 129.444 518.9 127.732 520.613 L 127.732 520.613 L 127.732 520.613 Q 126.019 522.325 126.019 524.704 L 126.019 524.704 L 126.019 524.704 Q 126.019 527.083 127.636 528.724 L 127.636 528.724 L 127.636 528.724 Q 129.254 530.366 131.633 530.461 Z " fill-rule="evenodd" fill="rgb(255,255,255)"/></g></svg>